<?xml version="1.0" encoding="UTF-8"?>
<svg xmlns="http://www.w3.org/2000/svg" version="1.1" width="150" height="150" viewBox="0 0 150 150"><rect x="0" y="0" width="150" height="150" fill="#ffffff"/><g transform="scale(6)"><g transform="translate(0,0)"><path fill-rule="evenodd" d="M8 0L8 1L9 1L9 5L10 5L10 9L11 9L11 11L10 11L10 10L6 10L6 9L7 9L7 8L6 8L6 9L5 9L5 8L3 8L3 9L4 9L4 10L6 10L6 11L5 11L5 12L4 12L4 11L3 11L3 10L2 10L2 11L1 11L1 9L2 9L2 8L0 8L0 12L2 12L2 13L0 13L0 17L1 17L1 15L2 15L2 16L6 16L6 17L7 17L7 16L6 16L6 15L7 15L7 14L8 14L8 15L9 15L9 17L8 17L8 18L9 18L9 17L10 17L10 18L11 18L11 19L10 19L10 20L11 20L11 19L12 19L12 18L11 18L11 17L13 17L13 18L14 18L14 17L15 17L15 16L16 16L16 19L15 19L15 20L14 20L14 19L13 19L13 20L12 20L12 21L11 21L11 22L10 22L10 21L9 21L9 20L8 20L8 22L9 22L9 23L8 23L8 25L11 25L11 24L12 24L12 25L13 25L13 23L14 23L14 24L15 24L15 23L18 23L18 22L19 22L19 24L16 24L16 25L19 25L19 24L21 24L21 25L22 25L22 24L24 24L24 25L25 25L25 22L22 22L22 20L21 20L21 19L22 19L22 18L21 18L21 16L20 16L20 14L21 14L21 15L22 15L22 17L23 17L23 18L24 18L24 21L25 21L25 18L24 18L24 16L25 16L25 14L24 14L24 13L25 13L25 10L24 10L24 9L25 9L25 8L24 8L24 9L19 9L19 8L18 8L18 9L19 9L19 10L16 10L16 8L17 8L17 5L16 5L16 8L15 8L15 6L14 6L14 7L13 7L13 6L12 6L12 5L11 5L11 4L16 4L16 3L17 3L17 2L16 2L16 3L14 3L14 2L15 2L15 1L13 1L13 0L12 0L12 2L11 2L11 0L10 0L10 1L9 1L9 0ZM16 0L16 1L17 1L17 0ZM10 2L10 3L11 3L11 2ZM12 2L12 3L13 3L13 2ZM8 6L8 8L9 8L9 6ZM11 6L11 8L12 8L12 6ZM13 8L13 9L12 9L12 11L11 11L11 13L9 13L9 15L10 15L10 16L11 16L11 15L13 15L13 16L14 16L14 15L15 15L15 13L14 13L14 12L15 12L15 11L14 11L14 10L15 10L15 8ZM20 10L20 11L21 11L21 10ZM22 10L22 11L24 11L24 10ZM6 11L6 12L5 12L5 13L3 13L3 15L5 15L5 13L6 13L6 14L7 14L7 13L8 13L8 11ZM9 11L9 12L10 12L10 11ZM12 11L12 13L11 13L11 14L10 14L10 15L11 15L11 14L12 14L12 13L13 13L13 15L14 15L14 13L13 13L13 11ZM17 11L17 12L16 12L16 13L17 13L17 14L16 14L16 16L17 16L17 15L18 15L18 14L20 14L20 13L21 13L21 14L23 14L23 13L24 13L24 12L20 12L20 13L18 13L18 12L19 12L19 11ZM6 12L6 13L7 13L7 12ZM23 15L23 16L24 16L24 15ZM17 17L17 20L20 20L20 17ZM18 18L18 19L19 19L19 18ZM13 20L13 21L12 21L12 22L14 22L14 20ZM15 21L15 22L16 22L16 21ZM19 21L19 22L21 22L21 24L22 24L22 22L21 22L21 21ZM0 0L0 7L7 7L7 0ZM1 1L1 6L6 6L6 1ZM2 2L2 5L5 5L5 2ZM18 0L18 7L25 7L25 0ZM19 1L19 6L24 6L24 1ZM20 2L20 5L23 5L23 2ZM0 18L0 25L7 25L7 18ZM1 19L1 24L6 24L6 19ZM2 20L2 23L5 23L5 20Z" fill="#000000"/></g></g></svg>
