<?xml version="1.0" encoding="UTF-8"?>
<svg xmlns="http://www.w3.org/2000/svg" version="1.1" width="150" height="150" viewBox="0 0 150 150"><rect x="0" y="0" width="150" height="150" fill="#ffffff"/><g transform="scale(6)"><g transform="translate(0,0)"><path fill-rule="evenodd" d="M11 0L11 1L10 1L10 2L9 2L9 1L8 1L8 2L9 2L9 3L8 3L8 4L9 4L9 5L8 5L8 7L9 7L9 8L6 8L6 9L7 9L7 10L5 10L5 12L4 12L4 13L3 13L3 11L4 11L4 10L3 10L3 9L5 9L5 8L0 8L0 11L1 11L1 12L0 12L0 17L1 17L1 13L3 13L3 14L2 14L2 15L4 15L4 17L5 17L5 14L6 14L6 15L9 15L9 14L10 14L10 11L11 11L11 14L12 14L12 13L14 13L14 14L15 14L15 15L16 15L16 17L15 17L15 18L14 18L14 16L13 16L13 15L10 15L10 16L6 16L6 17L8 17L8 19L9 19L9 17L10 17L10 16L12 16L12 17L11 17L11 18L12 18L12 17L13 17L13 19L14 19L14 20L12 20L12 21L11 21L11 19L10 19L10 20L8 20L8 25L15 25L15 24L18 24L18 25L25 25L25 22L24 22L24 24L22 24L22 23L23 23L23 20L22 20L22 19L24 19L24 21L25 21L25 18L23 18L23 16L22 16L22 13L23 13L23 15L24 15L24 16L25 16L25 14L24 14L24 13L25 13L25 10L24 10L24 8L23 8L23 11L24 11L24 12L22 12L22 13L21 13L21 11L22 11L22 10L20 10L20 8L19 8L19 10L18 10L18 11L17 11L17 9L18 9L18 8L17 8L17 6L16 6L16 5L15 5L15 4L14 4L14 3L12 3L12 2L13 2L13 1L15 1L15 2L16 2L16 1L15 1L15 0ZM11 1L11 2L12 2L12 1ZM9 3L9 4L11 4L11 3ZM16 3L16 4L17 4L17 3ZM12 4L12 5L10 5L10 6L9 6L9 7L10 7L10 6L11 6L11 8L9 8L9 9L8 9L8 10L9 10L9 9L11 9L11 8L12 8L12 6L13 6L13 8L14 8L14 9L12 9L12 10L11 10L11 11L13 11L13 12L14 12L14 13L15 13L15 14L16 14L16 13L15 13L15 12L17 12L17 11L15 11L15 10L16 10L16 9L15 9L15 7L16 7L16 6L15 6L15 5L14 5L14 4ZM14 6L14 7L15 7L15 6ZM21 8L21 9L22 9L22 8ZM1 9L1 11L3 11L3 10L2 10L2 9ZM14 9L14 10L15 10L15 9ZM6 11L6 12L5 12L5 13L4 13L4 14L5 14L5 13L6 13L6 14L7 14L7 13L8 13L8 14L9 14L9 12L8 12L8 11ZM18 11L18 12L19 12L19 13L17 13L17 15L18 15L18 14L19 14L19 15L21 15L21 13L20 13L20 12L19 12L19 11ZM6 12L6 13L7 13L7 12ZM19 13L19 14L20 14L20 13ZM2 16L2 17L3 17L3 16ZM21 16L21 17L22 17L22 16ZM17 17L17 20L20 20L20 17ZM15 18L15 20L16 20L16 18ZM18 18L18 19L19 19L19 18ZM9 21L9 22L10 22L10 21ZM12 21L12 22L11 22L11 24L12 24L12 22L14 22L14 23L13 23L13 24L14 24L14 23L15 23L15 21ZM16 21L16 22L17 22L17 23L18 23L18 24L19 24L19 22L20 22L20 23L22 23L22 21L21 21L21 22L20 22L20 21L19 21L19 22L17 22L17 21ZM9 23L9 24L10 24L10 23ZM0 0L0 7L7 7L7 0ZM1 1L1 6L6 6L6 1ZM2 2L2 5L5 5L5 2ZM18 0L18 7L25 7L25 0ZM19 1L19 6L24 6L24 1ZM20 2L20 5L23 5L23 2ZM0 18L0 25L7 25L7 18ZM1 19L1 24L6 24L6 19ZM2 20L2 23L5 23L5 20Z" fill="#000000"/></g></g></svg>
