<?xml version="1.0" encoding="UTF-8"?>
<svg xmlns="http://www.w3.org/2000/svg" version="1.1" width="150" height="150" viewBox="0 0 150 150"><rect x="0" y="0" width="150" height="150" fill="#ffffff"/><g transform="scale(6)"><g transform="translate(0,0)"><path fill-rule="evenodd" d="M8 0L8 2L9 2L9 4L8 4L8 9L7 9L7 8L5 8L5 10L4 10L4 9L3 9L3 8L0 8L0 9L3 9L3 11L2 11L2 10L0 10L0 13L1 13L1 14L0 14L0 15L2 15L2 14L3 14L3 16L0 16L0 17L5 17L5 16L4 16L4 15L7 15L7 16L6 16L6 17L7 17L7 16L10 16L10 17L8 17L8 18L9 18L9 19L8 19L8 20L9 20L9 22L8 22L8 25L9 25L9 23L10 23L10 24L11 24L11 23L13 23L13 19L12 19L12 18L14 18L14 17L15 17L15 16L16 16L16 19L14 19L14 20L15 20L15 21L17 21L17 23L16 23L16 22L14 22L14 24L15 24L15 23L16 23L16 25L19 25L19 24L21 24L21 25L22 25L22 24L21 24L21 22L23 22L23 23L25 23L25 20L23 20L23 21L22 21L22 20L21 20L21 19L22 19L22 18L23 18L23 17L24 17L24 19L25 19L25 17L24 17L24 16L23 16L23 17L22 17L22 18L21 18L21 15L23 15L23 14L24 14L24 15L25 15L25 12L24 12L24 13L23 13L23 14L20 14L20 12L22 12L22 11L23 11L23 10L24 10L24 11L25 11L25 8L23 8L23 10L22 10L22 9L21 9L21 8L17 8L17 6L16 6L16 8L14 8L14 10L13 10L13 8L12 8L12 9L11 9L11 6L10 6L10 10L11 10L11 12L9 12L9 13L11 13L11 14L10 14L10 15L7 15L7 14L8 14L8 13L7 13L7 12L6 12L6 11L7 11L7 10L9 10L9 5L10 5L10 2L11 2L11 0L10 0L10 1L9 1L9 0ZM12 0L12 1L13 1L13 0ZM16 0L16 1L17 1L17 0ZM13 2L13 5L12 5L12 7L13 7L13 5L14 5L14 3L15 3L15 4L16 4L16 5L17 5L17 2L16 2L16 3L15 3L15 2ZM11 3L11 4L12 4L12 3ZM14 6L14 7L15 7L15 6ZM16 8L16 9L17 9L17 10L16 10L16 13L17 13L17 14L16 14L16 15L17 15L17 14L18 14L18 12L17 12L17 10L18 10L18 9L17 9L17 8ZM6 9L6 10L5 10L5 11L6 11L6 10L7 10L7 9ZM20 9L20 10L19 10L19 11L21 11L21 9ZM12 10L12 12L11 12L11 13L12 13L12 12L13 12L13 14L12 14L12 16L13 16L13 17L14 17L14 16L15 16L15 15L13 15L13 14L14 14L14 12L15 12L15 11L13 11L13 10ZM3 11L3 12L2 12L2 13L4 13L4 14L7 14L7 13L6 13L6 12L5 12L5 13L4 13L4 11ZM18 15L18 16L19 16L19 15ZM10 17L10 19L11 19L11 20L12 20L12 19L11 19L11 17ZM17 17L17 20L20 20L20 17ZM18 18L18 19L19 19L19 18ZM10 21L10 23L11 23L11 21ZM18 21L18 23L20 23L20 21ZM23 21L23 22L24 22L24 21ZM12 24L12 25L13 25L13 24ZM24 24L24 25L25 25L25 24ZM0 0L0 7L7 7L7 0ZM1 1L1 6L6 6L6 1ZM2 2L2 5L5 5L5 2ZM18 0L18 7L25 7L25 0ZM19 1L19 6L24 6L24 1ZM20 2L20 5L23 5L23 2ZM0 18L0 25L7 25L7 18ZM1 19L1 24L6 24L6 19ZM2 20L2 23L5 23L5 20Z" fill="#000000"/></g></g></svg>
