<?xml version="1.0" encoding="UTF-8"?>
<svg xmlns="http://www.w3.org/2000/svg" version="1.1" width="150" height="150" viewBox="0 0 150 150"><rect x="0" y="0" width="150" height="150" fill="#ffffff"/><g transform="scale(6)"><g transform="translate(0,0)"><path fill-rule="evenodd" d="M8 0L8 1L9 1L9 2L8 2L8 5L9 5L9 6L8 6L8 7L9 7L9 6L10 6L10 7L11 7L11 8L8 8L8 9L7 9L7 8L6 8L6 9L4 9L4 8L0 8L0 9L4 9L4 10L5 10L5 11L3 11L3 10L1 10L1 12L0 12L0 13L2 13L2 12L6 12L6 13L3 13L3 14L4 14L4 16L5 16L5 17L7 17L7 16L11 16L11 18L13 18L13 19L10 19L10 17L8 17L8 18L9 18L9 21L8 21L8 25L9 25L9 24L10 24L10 25L15 25L15 22L16 22L16 23L17 23L17 24L18 24L18 25L25 25L25 24L23 24L23 23L24 23L24 22L23 22L23 21L22 21L22 22L21 22L21 19L23 19L23 20L24 20L24 19L25 19L25 15L24 15L24 14L25 14L25 12L23 12L23 11L20 11L20 9L23 9L23 10L24 10L24 9L25 9L25 8L24 8L24 9L23 9L23 8L20 8L20 9L19 9L19 11L18 11L18 10L17 10L17 9L18 9L18 8L17 8L17 5L16 5L16 4L17 4L17 2L15 2L15 0L11 0L11 1L9 1L9 0ZM12 1L12 2L14 2L14 4L13 4L13 5L14 5L14 6L13 6L13 7L12 7L12 4L11 4L11 2L9 2L9 5L10 5L10 4L11 4L11 7L12 7L12 10L13 10L13 11L12 11L12 12L13 12L13 11L14 11L14 13L13 13L13 14L14 14L14 15L13 15L13 16L12 16L12 17L13 17L13 18L15 18L15 19L13 19L13 20L10 20L10 21L9 21L9 22L10 22L10 23L11 23L11 24L13 24L13 22L15 22L15 21L16 21L16 22L17 22L17 21L16 21L16 20L15 20L15 19L16 19L16 17L13 17L13 16L16 16L16 15L19 15L19 14L15 14L15 11L16 11L16 9L17 9L17 8L16 8L16 5L15 5L15 4L16 4L16 3L15 3L15 2L14 2L14 1ZM14 6L14 8L15 8L15 6ZM6 9L6 10L7 10L7 11L6 11L6 12L8 12L8 14L7 14L7 13L6 13L6 14L7 14L7 15L5 15L5 16L7 16L7 15L8 15L8 14L9 14L9 15L10 15L10 14L11 14L11 15L12 15L12 13L11 13L11 10L9 10L9 9L8 9L8 10L7 10L7 9ZM14 9L14 11L15 11L15 9ZM8 11L8 12L9 12L9 14L10 14L10 12L9 12L9 11ZM19 11L19 13L20 13L20 11ZM21 12L21 14L20 14L20 15L22 15L22 16L24 16L24 15L22 15L22 14L24 14L24 13L22 13L22 12ZM1 14L1 15L0 15L0 16L1 16L1 15L2 15L2 17L3 17L3 15L2 15L2 14ZM17 17L17 20L20 20L20 17ZM21 17L21 18L24 18L24 17ZM18 18L18 19L19 19L19 18ZM14 20L14 21L15 21L15 20ZM10 21L10 22L11 22L11 23L12 23L12 21ZM19 21L19 22L20 22L20 21ZM19 23L19 24L20 24L20 23ZM21 23L21 24L22 24L22 23ZM0 0L0 7L7 7L7 0ZM1 1L1 6L6 6L6 1ZM2 2L2 5L5 5L5 2ZM18 0L18 7L25 7L25 0ZM19 1L19 6L24 6L24 1ZM20 2L20 5L23 5L23 2ZM0 18L0 25L7 25L7 18ZM1 19L1 24L6 24L6 19ZM2 20L2 23L5 23L5 20Z" fill="#000000"/></g></g></svg>
