<?xml version="1.0" encoding="UTF-8"?>
<svg xmlns="http://www.w3.org/2000/svg" version="1.1" width="150" height="150" viewBox="0 0 150 150"><rect x="0" y="0" width="150" height="150" fill="#ffffff"/><g transform="scale(6)"><g transform="translate(0,0)"><path fill-rule="evenodd" d="M8 0L8 1L9 1L9 2L8 2L8 5L9 5L9 6L8 6L8 7L9 7L9 6L10 6L10 7L11 7L11 8L8 8L8 9L7 9L7 8L6 8L6 9L7 9L7 10L5 10L5 11L4 11L4 12L3 12L3 13L5 13L5 15L2 15L2 10L4 10L4 8L0 8L0 10L1 10L1 11L0 11L0 13L1 13L1 15L0 15L0 16L1 16L1 15L2 15L2 16L4 16L4 17L5 17L5 16L6 16L6 17L8 17L8 18L9 18L9 19L11 19L11 20L13 20L13 19L15 19L15 20L14 20L14 21L15 21L15 22L13 22L13 24L11 24L11 23L12 23L12 21L11 21L11 23L10 23L10 22L9 22L9 21L10 21L10 20L9 20L9 21L8 21L8 25L10 25L10 24L11 24L11 25L15 25L15 22L16 22L16 23L17 23L17 24L18 24L18 25L25 25L25 24L23 24L23 23L24 23L24 22L23 22L23 21L22 21L22 22L21 22L21 19L23 19L23 20L24 20L24 19L25 19L25 15L24 15L24 14L25 14L25 12L23 12L23 11L20 11L20 9L23 9L23 10L24 10L24 9L25 9L25 8L24 8L24 9L23 9L23 8L20 8L20 9L19 9L19 11L18 11L18 10L17 10L17 9L18 9L18 8L17 8L17 5L16 5L16 4L17 4L17 2L15 2L15 0L11 0L11 1L9 1L9 0ZM12 1L12 2L14 2L14 4L13 4L13 5L14 5L14 6L13 6L13 7L12 7L12 4L11 4L11 2L9 2L9 5L10 5L10 4L11 4L11 7L12 7L12 10L13 10L13 11L12 11L12 12L13 12L13 11L14 11L14 13L13 13L13 14L14 14L14 15L13 15L13 16L12 16L12 17L13 17L13 18L11 18L11 19L13 19L13 18L15 18L15 19L16 19L16 17L13 17L13 16L16 16L16 15L19 15L19 14L15 14L15 11L16 11L16 9L17 9L17 8L16 8L16 5L15 5L15 4L16 4L16 3L15 3L15 2L14 2L14 1ZM14 6L14 8L15 8L15 6ZM8 9L8 11L9 11L9 12L10 12L10 14L8 14L8 13L6 13L6 14L8 14L8 16L9 16L9 15L10 15L10 14L11 14L11 15L12 15L12 13L11 13L11 12L10 12L10 11L11 11L11 10L10 10L10 11L9 11L9 9ZM14 9L14 11L15 11L15 9ZM6 11L6 12L7 12L7 11ZM19 11L19 13L20 13L20 11ZM21 12L21 14L20 14L20 15L22 15L22 16L24 16L24 15L22 15L22 14L24 14L24 13L22 13L22 12ZM6 15L6 16L7 16L7 15ZM10 16L10 17L9 17L9 18L10 18L10 17L11 17L11 16ZM17 17L17 20L20 20L20 17ZM21 17L21 18L24 18L24 17ZM18 18L18 19L19 19L19 18ZM15 20L15 21L16 21L16 22L17 22L17 21L16 21L16 20ZM19 21L19 22L20 22L20 21ZM9 23L9 24L10 24L10 23ZM19 23L19 24L20 24L20 23ZM21 23L21 24L22 24L22 23ZM0 0L0 7L7 7L7 0ZM1 1L1 6L6 6L6 1ZM2 2L2 5L5 5L5 2ZM18 0L18 7L25 7L25 0ZM19 1L19 6L24 6L24 1ZM20 2L20 5L23 5L23 2ZM0 18L0 25L7 25L7 18ZM1 19L1 24L6 24L6 19ZM2 20L2 23L5 23L5 20Z" fill="#000000"/></g></g></svg>
